<svg xmlns="http://www.w3.org/2000/svg" xmlns:xlink="http://www.w3.org/1999/xlink" width="300" zoomAndPan="magnify" viewBox="0 0 224.87999 112.499997" height="150" preserveAspectRatio="xMidYMid meet" version="1.0"><defs><g/><clipPath id="aa81690ea7"><path d="M 2 16 L 72 16 L 72 97.996094 L 2 97.996094 Z M 2 16 " clip-rule="nonzero"/></clipPath><clipPath id="07d2979d5e"><path d="M 1 15 L 72.867188 15 L 72.867188 97.996094 L 1 97.996094 Z M 1 15 " clip-rule="nonzero"/></clipPath></defs><g fill="#ff842f" fill-opacity="1"><g transform="translate(59.404133, 85.439111)"><g><path d="M 26.484375 -41.328125 L 11.53125 -41.328125 L 11.53125 -22.125 L 26.484375 -11.4375 Z M 38.296875 -23.171875 C 37.859375 -24.492188 37.640625 -25.566406 37.640625 -26.390625 C 37.640625 -27.335938 37.765625 -28.21875 38.015625 -29.03125 C 38.273438 -29.851562 38.625 -30.675781 39.0625 -31.5 C 40.257812 -33.445312 41.898438 -34.421875 43.984375 -34.421875 C 44.796875 -34.421875 45.582031 -34.265625 46.34375 -33.953125 C 47.101562 -33.640625 47.78125 -33.195312 48.375 -32.625 C 48.976562 -32.0625 49.453125 -31.414062 49.796875 -30.6875 C 50.140625 -29.96875 50.3125 -29.195312 50.3125 -28.375 C 50.3125 -26.863281 49.726562 -25.617188 48.5625 -24.640625 C 47.394531 -23.660156 45.738281 -23.015625 43.59375 -22.703125 C 43.726562 -22.578125 43.984375 -22.484375 44.359375 -22.421875 C 45.867188 -21.910156 47.191406 -21.65625 48.328125 -21.65625 C 50.722656 -21.65625 52.722656 -22.285156 54.328125 -23.546875 C 55.941406 -24.804688 56.75 -26.570312 56.75 -28.84375 C 56.75 -31.238281 56.054688 -33.789062 54.671875 -36.5 C 53.210938 -39.71875 51.445312 -41.328125 49.375 -41.328125 L 35.09375 -41.328125 L 35.09375 1.328125 C 22.039062 -7.441406 11.128906 -13.148438 2.359375 -15.796875 L 2.359375 -44.078125 C 2.359375 -47.671875 4.535156 -49.46875 8.890625 -49.46875 L 51.453125 -49.46875 C 52.140625 -49.46875 53.050781 -49.085938 54.1875 -48.328125 C 56.96875 -46.503906 59.050781 -44.582031 60.4375 -42.5625 C 61.125 -41.488281 61.65625 -40.226562 62.03125 -38.78125 C 62.414062 -37.332031 62.609375 -35.847656 62.609375 -34.328125 C 62.609375 -32.117188 62.195312 -29.832031 61.375 -27.46875 C 60.5625 -25.101562 59.394531 -23.132812 57.875 -21.5625 C 57.0625 -20.738281 56.242188 -20.09375 55.421875 -19.625 C 54.597656 -19.15625 53.742188 -18.789062 52.859375 -18.53125 C 51.984375 -18.28125 51.070312 -18.125 50.125 -18.0625 C 49.175781 -18 48.132812 -17.96875 47 -17.96875 C 46.375 -17.96875 45.601562 -18.09375 44.6875 -18.34375 C 43.769531 -18.59375 42.875 -18.972656 42 -19.484375 C 39.726562 -20.679688 38.460938 -21.941406 38.203125 -23.265625 Z M 38.296875 -23.171875 "/></g></g></g><g fill="#ff842f" fill-opacity="1"><g transform="translate(97.238205, 86.857883)"><g><path d="M -10.03125 7.84375 L -19.671875 7.84375 C -22.441406 7.84375 -23.828125 8.914062 -23.828125 11.0625 C -23.828125 13.269531 -21.8125 14.53125 -17.78125 14.84375 L -15.03125 14.84375 C -14.28125 14.84375 -13.601562 14.84375 -13 14.84375 C -12.40625 14.84375 -11.414062 14.78125 -10.03125 14.65625 Z M -2.84375 10.03125 L -2.84375 17.03125 C -6.375 19.289062 -10.566406 20.421875 -15.421875 20.421875 C -18.890625 20.421875 -21.882812 19.757812 -24.40625 18.4375 C -27.738281 16.738281 -29.40625 14.15625 -29.40625 10.6875 C -29.40625 6.394531 -27.738281 3.554688 -24.40625 2.171875 C -22.445312 1.222656 -19.351562 0.816406 -15.125 0.953125 C -14.0625 0.953125 -13.210938 0.984375 -12.578125 1.046875 C -11.953125 1.109375 -11.101562 1.140625 -10.03125 1.140625 L -10.03125 -7.1875 L -2.84375 -7.1875 L -2.84375 2.9375 L 7.75 2.9375 L 7.75 10.03125 Z M -2.84375 10.03125 "/></g></g></g><g fill="#ff842f" fill-opacity="1"><g transform="translate(116.909818, 85.439111)"><g><path d="M 6.8125 -27.609375 C 4.414062 -30.140625 3.21875 -32.914062 3.21875 -35.9375 C 3.21875 -37.382812 3.421875 -38.832031 3.828125 -40.28125 C 4.234375 -41.738281 4.785156 -43.128906 5.484375 -44.453125 C 7.191406 -47.796875 9.679688 -49.46875 12.953125 -49.46875 L 44.734375 -49.46875 C 44.671875 -49.28125 44.640625 -48.601562 44.640625 -47.4375 C 44.640625 -46.269531 44.640625 -44.972656 44.640625 -43.546875 C 44.640625 -42.128906 44.640625 -40.757812 44.640625 -39.4375 C 44.640625 -38.113281 44.640625 -37.234375 44.640625 -36.796875 C 44.640625 -27.273438 42.78125 -20.90625 39.0625 -17.6875 C 37.613281 -16.488281 35.5625 -15.476562 32.90625 -14.65625 C 30.257812 -13.84375 26.953125 -13.210938 22.984375 -12.765625 C 24.554688 -11.628906 26.238281 -10.445312 28.03125 -9.21875 C 29.832031 -7.988281 31.628906 -6.757812 33.421875 -5.53125 C 35.222656 -4.300781 36.972656 -3.101562 38.671875 -1.9375 C 40.378906 -0.769531 41.925781 0.316406 43.3125 1.328125 L 37.171875 1.328125 C 33.453125 -0.316406 30.203125 -1.753906 27.421875 -2.984375 C 24.648438 -4.210938 22.316406 -5.171875 20.421875 -5.859375 C 17.398438 -6.929688 14.328125 -7.910156 11.203125 -8.796875 C 8.085938 -9.679688 5.078125 -10.375 2.171875 -10.875 L 2.171875 -19.390625 L 24.6875 -19.203125 C 27.832031 -19.203125 30.414062 -20.191406 32.4375 -22.171875 C 34.457031 -24.160156 35.46875 -26.765625 35.46875 -29.984375 L 35.46875 -41.140625 L 12.765625 -41.140625 C 10.054688 -39.628906 8.703125 -37.421875 8.703125 -34.515625 C 8.703125 -31.992188 10.4375 -29.628906 13.90625 -27.421875 C 13.84375 -27.804688 13.796875 -28.140625 13.765625 -28.421875 C 13.734375 -28.703125 13.71875 -29 13.71875 -29.3125 C 13.71875 -30.195312 13.828125 -31.03125 14.046875 -31.8125 C 14.265625 -32.601562 14.53125 -33.316406 14.84375 -33.953125 C 15.851562 -35.648438 17.367188 -36.5 19.390625 -36.5 C 21.210938 -36.5 22.769531 -35.914062 24.0625 -34.75 C 25.363281 -33.582031 26.015625 -32.054688 26.015625 -30.171875 C 26.015625 -29.097656 25.757812 -28.117188 25.25 -27.234375 C 24.75 -26.359375 24.070312 -25.601562 23.21875 -24.96875 C 22.363281 -24.332031 21.414062 -23.84375 20.375 -23.5 C 19.34375 -23.15625 18.289062 -22.984375 17.21875 -22.984375 C 15.757812 -22.984375 13.898438 -23.457031 11.640625 -24.40625 C 10.566406 -24.96875 9.617188 -25.5 8.796875 -26 C 7.972656 -26.507812 7.3125 -27.015625 6.8125 -27.515625 Z M 17.40625 -70.75 C 17.40625 -68.664062 16.425781 -67.625 14.46875 -67.625 C 12.132812 -67.625 10.96875 -68.472656 10.96875 -70.171875 C 10.96875 -70.992188 11.410156 -71.785156 12.296875 -72.546875 C 12.171875 -72.546875 12.046875 -72.5625 11.921875 -72.59375 C 11.796875 -72.625 11.664062 -72.640625 11.53125 -72.640625 C 10.019531 -72.640625 9.109375 -71.660156 8.796875 -69.703125 C 8.734375 -69.390625 8.703125 -69.039062 8.703125 -68.65625 C 8.703125 -68.28125 8.703125 -67.9375 8.703125 -67.625 C 8.703125 -65.101562 9.804688 -63.429688 12.015625 -62.609375 L 11.921875 -62.609375 C 12.609375 -62.484375 13.597656 -62.359375 14.890625 -62.234375 C 16.179688 -62.109375 17.835938 -62.046875 19.859375 -62.046875 C 20.617188 -62.046875 21.769531 -62.109375 23.3125 -62.234375 C 24.851562 -62.359375 26.757812 -62.515625 29.03125 -62.703125 C 31.363281 -62.890625 33.476562 -62.984375 35.375 -62.984375 C 35.875 -62.984375 36.375 -62.96875 36.875 -62.9375 C 37.382812 -62.90625 37.859375 -62.890625 38.296875 -62.890625 C 42.398438 -62.515625 44.421875 -61.003906 44.359375 -58.359375 C 44.359375 -57.847656 44.34375 -57.148438 44.3125 -56.265625 C 44.28125 -55.390625 44.265625 -54.695312 44.265625 -54.1875 L 11.34375 -54.1875 C 8.070312 -54.1875 5.929688 -55.132812 4.921875 -57.03125 C 4.222656 -58.226562 3.875 -60.59375 3.875 -64.125 C 3.875 -65.570312 4 -66.910156 4.25 -68.140625 C 4.507812 -69.367188 4.921875 -70.519531 5.484375 -71.59375 C 6.992188 -74.6875 9.203125 -76.234375 12.109375 -76.234375 C 15.640625 -76.234375 17.40625 -74.40625 17.40625 -70.75 Z M 17.40625 -70.75 "/></g></g></g><g fill="#ff842f" fill-opacity="1"><g transform="translate(156.44473, 85.439111)"><g><path d="M 53.53125 -8.046875 L 53.71875 -41.328125 L 29.609375 -41.328125 L 29.609375 -26.578125 C 29.609375 -25.691406 30.078125 -24.882812 31.015625 -24.15625 C 31.960938 -23.4375 32.941406 -23.078125 33.953125 -23.078125 C 35.085938 -23.078125 36.207031 -23.34375 37.3125 -23.875 C 38.414062 -24.414062 39.472656 -25.285156 40.484375 -26.484375 L 40.484375 -31.96875 L 48.609375 -31.96875 L 48.609375 -15.890625 C 48.609375 -15.515625 48.421875 -14.867188 48.046875 -13.953125 C 47.671875 -13.035156 47.257812 -12.101562 46.8125 -11.15625 C 44.601562 -7.3125 41.828125 -4.269531 38.484375 -2.03125 C 35.148438 0.207031 31.335938 1.328125 27.046875 1.328125 C 19.921875 1.328125 13.929688 -1.351562 9.078125 -6.71875 C 4.347656 -11.882812 1.984375 -18.03125 1.984375 -25.15625 L 1.984375 -50.125 L 10.59375 -50.125 L 10.59375 -23.265625 C 10.59375 -18.535156 12.296875 -13.992188 15.703125 -9.640625 C 19.359375 -5.296875 23.488281 -3.125 28.09375 -3.125 C 30.988281 -3.125 33.664062 -3.941406 36.125 -5.578125 C 39.03125 -7.410156 40.484375 -9.617188 40.484375 -12.203125 L 40.484375 -20.328125 C 38.710938 -18.878906 37.117188 -17.835938 35.703125 -17.203125 C 34.285156 -16.578125 33.039062 -16.265625 31.96875 -16.265625 C 30.832031 -16.265625 29.664062 -16.453125 28.46875 -16.828125 C 27.269531 -17.210938 26.101562 -17.8125 24.96875 -18.625 C 22.570312 -20.394531 21.375 -22.507812 21.375 -24.96875 L 21.375 -49.46875 L 62.796875 -49.46875 L 62.796875 0.28125 Z M 53.53125 -8.046875 "/></g></g></g><g fill="#ff842f" fill-opacity="1"><g transform="translate(214.425392, 85.439111)"><g/></g></g><g clip-path="url(#aa81690ea7)"><path fill="#ff842f" d="M 50.339844 97.492188 L 50.339844 81.609375 L 58.28125 81.609375 C 58.542969 81.609375 58.800781 81.582031 59.058594 81.53125 C 59.3125 81.480469 59.5625 81.40625 59.800781 81.304688 C 60.042969 81.207031 60.273438 81.082031 60.488281 80.9375 C 60.707031 80.792969 60.90625 80.628906 61.089844 80.445312 C 61.273438 80.261719 61.441406 80.058594 61.585938 79.84375 C 61.730469 79.625 61.851562 79.398438 61.953125 79.15625 C 62.050781 78.914062 62.125 78.667969 62.175781 78.410156 C 62.226562 78.15625 62.253906 77.898438 62.253906 77.636719 L 62.253906 61.753906 L 71.519531 61.753906 L 62.253906 45.871094 C 62.242188 45.292969 62.210938 44.71875 62.164062 44.144531 C 62.117188 43.570312 62.054688 42.996094 61.972656 42.425781 C 61.894531 41.851562 61.796875 41.285156 61.683594 40.71875 C 61.574219 40.152344 61.441406 39.59375 61.296875 39.035156 C 61.152344 38.476562 60.992188 37.921875 60.8125 37.375 C 60.636719 36.824219 60.441406 36.28125 60.234375 35.746094 C 60.023438 35.207031 59.796875 34.675781 59.558594 34.152344 C 59.320312 33.628906 59.0625 33.113281 58.792969 32.601562 C 58.523438 32.09375 58.238281 31.589844 57.941406 31.097656 C 57.640625 30.605469 57.328125 30.121094 57 29.648438 C 56.671875 29.171875 56.332031 28.707031 55.976562 28.253906 C 55.625 27.796875 55.257812 27.351562 54.875 26.917969 C 54.496094 26.484375 54.101562 26.0625 53.699219 25.652344 C 53.292969 25.242188 52.878906 24.84375 52.449219 24.457031 C 52.023438 24.070312 51.582031 23.695312 51.132812 23.335938 C 50.683594 22.972656 50.226562 22.625 49.753906 22.289062 C 49.285156 21.957031 48.804688 21.636719 48.316406 21.328125 C 47.828125 21.023438 47.332031 20.730469 46.828125 20.453125 C 46.320312 20.175781 45.808594 19.910156 45.289062 19.664062 C 44.769531 19.414062 44.242188 19.183594 43.707031 18.964844 C 43.171875 18.746094 42.632812 18.546875 42.085938 18.359375 C 41.539062 18.175781 40.988281 18.003906 40.433594 17.851562 C 39.878906 17.695312 39.320312 17.558594 38.753906 17.4375 C 38.191406 17.316406 37.625 17.210938 37.054688 17.121094 C 36.484375 17.035156 35.914062 16.960938 35.339844 16.90625 C 34.765625 16.851562 34.191406 16.8125 33.613281 16.789062 C 33.035156 16.769531 32.460938 16.761719 31.882812 16.773438 C 31.308594 16.785156 30.730469 16.8125 30.15625 16.859375 C 29.582031 16.902344 29.007812 16.964844 28.4375 17.042969 C 27.867188 17.121094 27.296875 17.21875 26.730469 17.328125 C 26.167969 17.441406 25.605469 17.566406 25.046875 17.710938 C 24.488281 17.855469 23.933594 18.015625 23.382812 18.191406 C 22.835938 18.367188 22.292969 18.558594 21.753906 18.765625 C 21.214844 18.976562 20.683594 19.199219 20.160156 19.4375 C 19.632812 19.675781 19.117188 19.929688 18.605469 20.199219 C 18.097656 20.464844 17.59375 20.75 17.101562 21.046875 C 16.605469 21.34375 16.121094 21.65625 15.644531 21.984375 C 15.171875 22.308594 14.703125 22.648438 14.25 23 C 13.792969 23.355469 13.347656 23.71875 12.914062 24.097656 C 12.476562 24.476562 12.054688 24.871094 11.640625 25.273438 C 11.230469 25.675781 10.832031 26.089844 10.441406 26.519531 C 10.054688 26.945312 9.679688 27.382812 9.316406 27.832031 C 8.953125 28.28125 8.605469 28.738281 8.269531 29.207031 C 7.933594 29.675781 7.613281 30.152344 7.304688 30.640625 C 6.996094 31.128906 6.703125 31.625 6.421875 32.128906 C 6.144531 32.632812 5.878906 33.148438 5.628906 33.667969 C 5.378906 34.1875 5.144531 34.714844 4.925781 35.246094 C 4.707031 35.78125 4.503906 36.320312 4.316406 36.863281 C 4.128906 37.410156 3.957031 37.960938 3.804688 38.515625 C 3.648438 39.070312 3.507812 39.628906 3.386719 40.195312 C 3.261719 40.757812 3.15625 41.324219 3.066406 41.894531 C 2.976562 42.464844 2.902344 43.035156 2.84375 43.609375 C 2.789062 44.183594 2.746094 44.757812 2.722656 45.332031 C 2.699219 45.910156 2.695312 46.484375 2.703125 47.0625 C 2.714844 47.640625 2.738281 48.214844 2.785156 48.789062 C 2.828125 49.363281 2.886719 49.9375 2.964844 50.511719 C 3.039062 51.082031 3.132812 51.648438 3.242188 52.214844 C 3.351562 52.78125 3.480469 53.34375 3.621094 53.902344 C 3.765625 54.460938 3.921875 55.015625 4.097656 55.566406 C 4.273438 56.117188 4.460938 56.660156 4.667969 57.199219 C 4.875 57.738281 5.097656 58.269531 5.332031 58.796875 C 5.570312 59.320312 5.824219 59.839844 6.089844 60.351562 C 6.355469 60.859375 6.640625 61.363281 6.933594 61.859375 C 7.230469 62.351562 7.542969 62.839844 7.867188 63.316406 C 10.988281 67.699219 13.3125 72.476562 14.84375 77.636719 C 16.640625 84.132812 17.445312 90.753906 17.25 97.492188 Z M 50.339844 97.492188 " fill-opacity="1" fill-rule="nonzero"/></g><path fill="#0fd9dd" d="M 42.398438 43.222656 C 42.398438 42.59375 42.34375 41.972656 42.234375 41.351562 C 42.125 40.734375 41.960938 40.132812 41.742188 39.542969 C 41.523438 38.953125 41.253906 38.386719 40.9375 37.847656 C 40.617188 37.304688 40.253906 36.796875 39.84375 36.320312 C 39.433594 35.84375 38.988281 35.40625 38.5 35.007812 C 38.011719 34.613281 37.496094 34.261719 36.945312 33.957031 C 36.394531 33.652344 35.824219 33.398438 35.230469 33.195312 C 34.636719 32.992188 34.027344 32.84375 33.40625 32.75 C 32.785156 32.65625 32.160156 32.617188 31.53125 32.632812 C 30.90625 32.648438 30.285156 32.722656 29.667969 32.847656 C 29.054688 32.976562 28.453125 33.15625 27.871094 33.390625 C 27.289062 33.625 26.730469 33.90625 26.199219 34.238281 C 25.664062 34.574219 25.164062 34.949219 24.699219 35.371094 C 24.234375 35.792969 23.808594 36.253906 23.425781 36.75 C 23.042969 37.246094 22.707031 37.773438 22.417969 38.332031 C 22.125 38.890625 21.886719 39.46875 21.703125 40.066406 C 21.515625 40.667969 21.382812 41.28125 21.304688 41.902344 C 21.226562 42.527344 21.203125 43.152344 21.238281 43.777344 C 21.269531 44.40625 21.359375 45.023438 21.5 45.636719 C 21.644531 46.25 21.839844 46.84375 22.089844 47.417969 C 22.339844 47.996094 22.636719 48.546875 22.984375 49.070312 C 23.332031 49.59375 23.722656 50.082031 24.15625 50.535156 C 24.589844 50.988281 25.0625 51.402344 25.570312 51.773438 C 26.078125 52.140625 26.613281 52.464844 27.179688 52.738281 L 27.179688 58.445312 C 27.179688 58.75 27.207031 59.050781 27.269531 59.347656 C 27.328125 59.644531 27.414062 59.933594 27.53125 60.214844 C 27.648438 60.496094 27.789062 60.765625 27.960938 61.015625 C 28.128906 61.269531 28.320312 61.503906 28.535156 61.71875 C 28.75 61.933594 28.984375 62.125 29.238281 62.292969 C 29.492188 62.460938 29.757812 62.605469 30.039062 62.722656 C 30.320312 62.839844 30.609375 62.925781 30.90625 62.984375 C 31.207031 63.042969 31.507812 63.074219 31.8125 63.074219 C 32.113281 63.074219 32.414062 63.042969 32.714844 62.984375 C 33.011719 62.925781 33.300781 62.839844 33.582031 62.722656 C 33.863281 62.605469 34.128906 62.460938 34.382812 62.292969 C 34.636719 62.125 34.871094 61.933594 35.085938 61.71875 C 35.300781 61.503906 35.492188 61.269531 35.660156 61.015625 C 35.832031 60.765625 35.972656 60.496094 36.089844 60.214844 C 36.207031 59.933594 36.292969 59.644531 36.355469 59.347656 C 36.414062 59.050781 36.441406 58.75 36.445312 58.445312 L 36.445312 52.738281 C 37.335938 52.304688 38.152344 51.757812 38.890625 51.09375 C 39.628906 50.429688 40.261719 49.675781 40.785156 48.835938 C 41.3125 47.996094 41.714844 47.097656 41.988281 46.144531 C 42.261719 45.1875 42.398438 44.214844 42.398438 43.222656 Z M 42.398438 43.222656 " fill-opacity="1" fill-rule="nonzero"/><path fill="#6c8199" d="M 36.445312 53.8125 L 36.445312 58.445312 C 36.441406 58.75 36.414062 59.050781 36.355469 59.347656 C 36.292969 59.644531 36.207031 59.933594 36.089844 60.214844 C 35.972656 60.496094 35.832031 60.765625 35.660156 61.015625 C 35.492188 61.269531 35.300781 61.503906 35.085938 61.71875 C 34.871094 61.933594 34.636719 62.125 34.382812 62.292969 C 34.128906 62.460938 33.863281 62.605469 33.582031 62.722656 C 33.300781 62.839844 33.011719 62.925781 32.714844 62.984375 C 32.414062 63.042969 32.113281 63.074219 31.8125 63.074219 C 31.507812 63.074219 31.207031 63.042969 30.90625 62.984375 C 30.609375 62.925781 30.320312 62.839844 30.039062 62.722656 C 29.757812 62.605469 29.492188 62.460938 29.238281 62.292969 C 28.984375 62.125 28.75 61.933594 28.535156 61.71875 C 28.320312 61.503906 28.128906 61.269531 27.960938 61.015625 C 27.789062 60.765625 27.648438 60.496094 27.53125 60.214844 C 27.414062 59.933594 27.328125 59.644531 27.269531 59.347656 C 27.207031 59.050781 27.179688 58.75 27.179688 58.445312 L 27.179688 53.8125 Z M 36.445312 53.8125 " fill-opacity="1" fill-rule="nonzero"/><g clip-path="url(#07d2979d5e)"><path fill="#ffffff" d="M 63.578125 77.636719 L 63.578125 63.078125 L 71.519531 63.078125 C 71.636719 63.078125 71.75 63.0625 71.859375 63.03125 C 71.972656 63 72.078125 62.957031 72.179688 62.898438 C 72.277344 62.839844 72.367188 62.769531 72.449219 62.6875 C 72.53125 62.605469 72.601562 62.511719 72.660156 62.410156 C 72.71875 62.3125 72.761719 62.207031 72.789062 62.09375 C 72.820312 61.980469 72.835938 61.867188 72.835938 61.75 C 72.835938 61.636719 72.820312 61.523438 72.789062 61.410156 C 72.757812 61.296875 72.714844 61.191406 72.65625 61.089844 L 63.578125 45.460938 C 63.542969 44.476562 63.460938 43.496094 63.332031 42.519531 C 63.203125 41.542969 63.03125 40.574219 62.808594 39.613281 C 62.589844 38.652344 62.324219 37.707031 62.015625 36.773438 C 61.703125 35.835938 61.351562 34.917969 60.953125 34.019531 C 60.554688 33.117188 60.117188 32.238281 59.636719 31.378906 C 59.152344 30.519531 58.632812 29.683594 58.074219 28.871094 C 57.511719 28.0625 56.914062 27.28125 56.28125 26.527344 C 55.644531 25.773438 54.976562 25.054688 54.273438 24.363281 C 53.570312 23.675781 52.835938 23.019531 52.070312 22.398438 C 51.304688 21.777344 50.511719 21.195312 49.691406 20.652344 C 48.871094 20.109375 48.027344 19.601562 47.160156 19.140625 C 46.289062 18.675781 45.402344 18.253906 44.492188 17.871094 C 43.585938 17.492188 42.660156 17.15625 41.71875 16.863281 C 40.777344 16.570312 39.828125 16.324219 38.863281 16.125 C 37.898438 15.921875 36.925781 15.765625 35.949219 15.65625 C 34.96875 15.546875 33.988281 15.484375 33.003906 15.46875 C 32.019531 15.453125 31.035156 15.484375 30.050781 15.558594 C 29.070312 15.636719 28.09375 15.761719 27.125 15.929688 C 26.15625 16.101562 25.195312 16.316406 24.246094 16.578125 C 23.296875 16.839844 22.359375 17.144531 21.441406 17.492188 C 20.519531 17.84375 19.617188 18.238281 18.734375 18.671875 C 17.851562 19.109375 16.988281 19.585938 16.152344 20.101562 C 15.3125 20.621094 14.503906 21.175781 13.714844 21.769531 C 12.929688 22.363281 12.175781 22.996094 11.449219 23.660156 C 10.726562 24.328125 10.035156 25.027344 9.375 25.757812 C 8.714844 26.492188 8.09375 27.253906 7.507812 28.042969 C 6.917969 28.835938 6.371094 29.652344 5.863281 30.496094 C 5.355469 31.339844 4.886719 32.203125 4.460938 33.089844 C 4.03125 33.980469 3.648438 34.882812 3.308594 35.808594 C 2.96875 36.734375 2.671875 37.671875 2.417969 38.625 C 2.167969 39.574219 1.960938 40.539062 1.800781 41.507812 C 1.640625 42.480469 1.527344 43.457031 1.460938 44.441406 C 1.210938 47.914062 1.539062 51.335938 2.445312 54.699219 C 3.351562 58.0625 4.789062 61.179688 6.753906 64.054688 C 9.792969 68.308594 12.050781 72.941406 13.53125 77.953125 C 15.304688 84.320312 16.101562 90.804688 15.925781 97.410156 L 18.574219 97.570312 C 18.789062 90.667969 17.96875 83.890625 16.113281 77.238281 C 14.550781 71.945312 12.167969 67.054688 8.964844 62.5625 C 8.480469 61.847656 8.03125 61.113281 7.609375 60.359375 C 7.191406 59.605469 6.808594 58.835938 6.460938 58.046875 C 6.113281 57.257812 5.804688 56.453125 5.527344 55.636719 C 5.253906 54.820312 5.015625 53.992188 4.816406 53.152344 C 4.617188 52.3125 4.457031 51.46875 4.332031 50.613281 C 4.210938 49.761719 4.125 48.902344 4.082031 48.042969 C 4.035156 47.179688 4.03125 46.320312 4.066406 45.457031 C 4.097656 44.597656 4.171875 43.738281 4.28125 42.882812 C 4.394531 42.027344 4.542969 41.179688 4.734375 40.339844 C 4.921875 39.5 5.148438 38.667969 5.410156 37.847656 C 5.675781 37.027344 5.976562 36.21875 6.3125 35.425781 C 6.652344 34.632812 7.023438 33.855469 7.433594 33.09375 C 7.839844 32.335938 8.28125 31.597656 8.757812 30.878906 C 9.234375 30.15625 9.738281 29.460938 10.277344 28.789062 C 10.816406 28.113281 11.382812 27.46875 11.980469 26.847656 C 12.578125 26.222656 13.203125 25.628906 13.855469 25.066406 C 14.507812 24.5 15.183594 23.964844 15.882812 23.464844 C 16.582031 22.960938 17.304688 22.488281 18.046875 22.050781 C 18.789062 21.613281 19.550781 21.210938 20.328125 20.839844 C 21.109375 20.472656 21.902344 20.140625 22.710938 19.84375 C 23.523438 19.546875 24.34375 19.285156 25.175781 19.066406 C 26.007812 18.84375 26.851562 18.660156 27.699219 18.515625 C 28.550781 18.367188 29.40625 18.261719 30.265625 18.195312 C 31.125 18.125 31.984375 18.097656 32.847656 18.109375 C 33.710938 18.117188 34.570312 18.167969 35.425781 18.257812 C 36.285156 18.347656 37.136719 18.472656 37.984375 18.640625 C 38.828125 18.804688 39.664062 19.007812 40.492188 19.25 C 41.320312 19.492188 42.136719 19.773438 42.9375 20.089844 C 43.738281 20.40625 44.527344 20.757812 45.296875 21.144531 C 46.066406 21.53125 46.816406 21.953125 47.550781 22.410156 C 48.28125 22.867188 48.992188 23.355469 49.675781 23.875 C 50.363281 24.394531 51.027344 24.945312 51.664062 25.527344 C 53.089844 26.816406 54.371094 28.238281 55.503906 29.789062 C 56.636719 31.339844 57.601562 32.992188 58.398438 34.742188 C 59.195312 36.488281 59.808594 38.300781 60.234375 40.175781 C 60.660156 42.050781 60.890625 43.949219 60.929688 45.871094 C 60.933594 46.160156 61.027344 46.414062 61.207031 46.636719 L 69.214844 60.429688 L 62.253906 60.429688 C 62.078125 60.429688 61.910156 60.464844 61.746094 60.53125 C 61.585938 60.597656 61.441406 60.695312 61.316406 60.816406 C 61.195312 60.941406 61.097656 61.085938 61.03125 61.246094 C 60.964844 61.410156 60.929688 61.578125 60.929688 61.753906 L 60.929688 77.636719 C 60.929688 77.988281 60.863281 78.324219 60.730469 78.648438 C 60.59375 78.972656 60.402344 79.261719 60.15625 79.507812 C 59.90625 79.757812 59.621094 79.949219 59.296875 80.082031 C 58.972656 80.21875 58.632812 80.285156 58.28125 80.285156 L 43.722656 80.285156 L 43.722656 82.929688 L 49.019531 82.929688 L 49.019531 97.492188 L 51.664062 97.492188 L 51.664062 82.929688 L 58.28125 82.929688 C 58.628906 82.929688 58.976562 82.898438 59.316406 82.828125 C 59.65625 82.761719 59.988281 82.660156 60.308594 82.527344 C 60.628906 82.394531 60.933594 82.230469 61.222656 82.039062 C 61.511719 81.847656 61.78125 81.625 62.027344 81.378906 C 62.273438 81.132812 62.492188 80.867188 62.683594 80.578125 C 62.878906 80.289062 63.042969 79.984375 63.175781 79.664062 C 63.308594 79.339844 63.40625 79.011719 63.476562 78.667969 C 63.542969 78.328125 63.578125 77.984375 63.578125 77.636719 Z M 63.578125 77.636719 " fill-opacity="1" fill-rule="nonzero"/></g><path fill="#ffffff" d="M 13.28125 41.898438 L 17.25 41.898438 L 17.25 44.546875 L 13.28125 44.546875 Z M 13.28125 41.898438 " fill-opacity="1" fill-rule="nonzero"/><path fill="#ffffff" d="M 46.371094 41.898438 L 50.339844 41.898438 L 50.339844 44.546875 L 46.371094 44.546875 Z M 46.371094 41.898438 " fill-opacity="1" fill-rule="nonzero"/><path fill="#ffffff" d="M 30.488281 24.691406 L 33.132812 24.691406 L 33.132812 28.664062 L 30.488281 28.664062 Z M 30.488281 24.691406 " fill-opacity="1" fill-rule="nonzero"/><path fill="#ffffff" d="M 17.777344 31.050781 L 19.648438 29.179688 L 22.457031 31.988281 L 20.582031 33.859375 Z M 17.777344 31.050781 " fill-opacity="1" fill-rule="nonzero"/><path fill="#ffffff" d="M 41.167969 54.453125 L 43.039062 52.578125 L 45.847656 55.386719 L 43.976562 57.257812 Z M 41.167969 54.453125 " fill-opacity="1" fill-rule="nonzero"/><path fill="#ffffff" d="M 17.777344 55.390625 L 20.585938 52.582031 L 22.457031 54.453125 L 19.648438 57.261719 Z M 17.777344 55.390625 " fill-opacity="1" fill-rule="nonzero"/><path fill="#ffffff" d="M 41.164062 31.984375 L 43.972656 29.175781 L 45.84375 31.046875 L 43.039062 33.855469 Z M 41.164062 31.984375 " fill-opacity="1" fill-rule="nonzero"/><path fill="#ffffff" d="M 31.8125 64.402344 C 32.203125 64.398438 32.589844 64.359375 32.972656 64.285156 C 33.355469 64.207031 33.726562 64.09375 34.089844 63.945312 C 34.449219 63.792969 34.792969 63.609375 35.117188 63.394531 C 35.441406 63.175781 35.742188 62.929688 36.019531 62.652344 C 36.296875 62.375 36.542969 62.074219 36.757812 61.75 C 36.976562 61.425781 37.160156 61.082031 37.308594 60.722656 C 37.460938 60.359375 37.574219 59.988281 37.652344 59.605469 C 37.726562 59.222656 37.765625 58.835938 37.765625 58.445312 L 37.765625 53.535156 C 38.140625 53.316406 38.503906 53.082031 38.855469 52.824219 C 39.203125 52.566406 39.539062 52.292969 39.859375 52 C 40.179688 51.707031 40.480469 51.398438 40.765625 51.070312 C 41.054688 50.746094 41.320312 50.40625 41.570312 50.050781 C 41.816406 49.695312 42.046875 49.328125 42.253906 48.945312 C 42.464844 48.566406 42.652344 48.175781 42.816406 47.777344 C 42.984375 47.375 43.125 46.96875 43.246094 46.550781 C 43.367188 46.132812 43.46875 45.714844 43.542969 45.285156 C 43.617188 44.859375 43.667969 44.429688 43.699219 43.996094 C 43.726562 43.5625 43.730469 43.132812 43.710938 42.699219 C 43.691406 42.265625 43.652344 41.832031 43.585938 41.40625 C 43.519531 40.976562 43.429688 40.554688 43.316406 40.132812 C 43.207031 39.714844 43.070312 39.304688 42.914062 38.898438 C 42.757812 38.496094 42.578125 38.101562 42.378906 37.71875 C 42.175781 37.332031 41.957031 36.960938 41.714844 36.597656 C 41.476562 36.238281 41.214844 35.890625 40.9375 35.558594 C 40.65625 35.226562 40.363281 34.910156 40.046875 34.613281 C 39.734375 34.3125 39.40625 34.03125 39.0625 33.765625 C 38.71875 33.503906 38.363281 33.257812 37.992188 33.035156 C 37.621094 32.808594 37.238281 32.605469 36.84375 32.421875 C 36.453125 32.238281 36.050781 32.078125 35.640625 31.9375 C 35.230469 31.796875 34.8125 31.679688 34.390625 31.585938 C 33.964844 31.492188 33.539062 31.421875 33.109375 31.375 C 32.675781 31.328125 32.246094 31.304688 31.8125 31.304688 C 31.378906 31.304688 30.945312 31.328125 30.515625 31.375 C 30.082031 31.421875 29.65625 31.492188 29.234375 31.585938 C 28.808594 31.679688 28.390625 31.796875 27.980469 31.9375 C 27.570312 32.078125 27.167969 32.238281 26.777344 32.421875 C 26.382812 32.605469 26 32.808594 25.632812 33.035156 C 25.261719 33.257812 24.902344 33.503906 24.558594 33.765625 C 24.214844 34.03125 23.886719 34.3125 23.574219 34.613281 C 23.261719 34.910156 22.964844 35.226562 22.683594 35.558594 C 22.40625 35.890625 22.148438 36.238281 21.90625 36.597656 C 21.664062 36.960938 21.445312 37.332031 21.246094 37.71875 C 21.042969 38.101562 20.867188 38.496094 20.707031 38.898438 C 20.550781 39.304688 20.417969 39.714844 20.304688 40.132812 C 20.191406 40.554688 20.101562 40.976562 20.035156 41.40625 C 19.972656 41.832031 19.929688 42.265625 19.910156 42.699219 C 19.890625 43.132812 19.894531 43.5625 19.925781 43.996094 C 19.953125 44.429688 20.003906 44.859375 20.078125 45.285156 C 20.15625 45.714844 20.253906 46.132812 20.375 46.550781 C 20.496094 46.96875 20.640625 47.375 20.804688 47.777344 C 20.972656 48.175781 21.160156 48.566406 21.367188 48.945312 C 21.574219 49.328125 21.804688 49.695312 22.050781 50.050781 C 22.300781 50.40625 22.570312 50.746094 22.855469 51.070312 C 23.140625 51.398438 23.441406 51.707031 23.761719 52 C 24.082031 52.292969 24.417969 52.566406 24.765625 52.824219 C 25.117188 53.082031 25.480469 53.316406 25.855469 53.535156 L 25.855469 58.445312 C 25.855469 58.835938 25.894531 59.222656 25.972656 59.605469 C 26.046875 59.988281 26.160156 60.359375 26.3125 60.722656 C 26.460938 61.082031 26.644531 61.425781 26.863281 61.75 C 27.078125 62.074219 27.328125 62.375 27.601562 62.652344 C 27.878906 62.929688 28.179688 63.175781 28.503906 63.394531 C 28.828125 63.609375 29.171875 63.792969 29.535156 63.945312 C 29.894531 64.09375 30.265625 64.207031 30.648438 64.285156 C 31.03125 64.359375 31.421875 64.398438 31.8125 64.402344 Z M 31.8125 61.753906 C 31.152344 61.75 30.550781 61.570312 30 61.210938 C 29.449219 60.851562 29.042969 60.371094 28.78125 59.769531 L 34.84375 59.769531 C 34.578125 60.371094 34.171875 60.851562 33.621094 61.210938 C 33.070312 61.570312 32.46875 61.75 31.8125 61.753906 Z M 35.121094 57.121094 L 28.5 57.121094 L 28.5 55.136719 L 35.121094 55.136719 Z M 22.546875 43.222656 C 22.546875 42.671875 22.59375 42.128906 22.691406 41.585938 C 22.785156 41.046875 22.929688 40.515625 23.121094 40 C 23.3125 39.484375 23.546875 38.992188 23.824219 38.515625 C 24.105469 38.042969 24.421875 37.597656 24.78125 37.179688 C 25.136719 36.765625 25.53125 36.382812 25.957031 36.035156 C 26.382812 35.6875 26.835938 35.378906 27.316406 35.113281 C 27.796875 34.847656 28.296875 34.625 28.816406 34.445312 C 29.339844 34.269531 29.871094 34.140625 30.414062 34.054688 C 30.957031 33.972656 31.503906 33.9375 32.054688 33.953125 C 32.601562 33.96875 33.148438 34.03125 33.683594 34.140625 C 34.222656 34.253906 34.746094 34.410156 35.257812 34.617188 C 35.769531 34.820312 36.257812 35.066406 36.722656 35.359375 C 37.1875 35.652344 37.625 35.980469 38.03125 36.351562 C 38.441406 36.71875 38.8125 37.121094 39.148438 37.558594 C 39.484375 37.992188 39.777344 38.453125 40.03125 38.941406 C 40.285156 39.429688 40.492188 39.9375 40.65625 40.460938 C 40.820312 40.984375 40.9375 41.519531 41.003906 42.066406 C 41.074219 42.613281 41.09375 43.160156 41.0625 43.707031 C 41.035156 44.257812 40.957031 44.800781 40.832031 45.335938 C 40.703125 45.871094 40.53125 46.390625 40.316406 46.894531 C 40.097656 47.398438 39.835938 47.878906 39.53125 48.335938 C 39.226562 48.796875 38.886719 49.222656 38.503906 49.621094 C 38.125 50.019531 37.714844 50.378906 37.269531 50.703125 C 36.824219 51.027344 36.355469 51.308594 35.859375 51.546875 C 35.472656 51.746094 35.238281 52.058594 35.160156 52.488281 L 28.460938 52.488281 C 28.382812 52.058594 28.148438 51.746094 27.761719 51.546875 C 26.980469 51.167969 26.265625 50.6875 25.621094 50.109375 C 24.972656 49.527344 24.417969 48.871094 23.957031 48.132812 C 23.496094 47.398438 23.148438 46.613281 22.90625 45.777344 C 22.667969 44.941406 22.546875 44.089844 22.546875 43.222656 Z M 22.546875 43.222656 " fill-opacity="1" fill-rule="nonzero"/><g fill="#8cc342" fill-opacity="0.4"><g transform="translate(115.025425, 102.860629)"><g><path d="M 5.375 -8.375 L 2.34375 -8.375 L 2.34375 -4.484375 L 5.375 -2.3125 Z M 7.765625 -4.703125 C 7.671875 -4.960938 7.625 -5.175781 7.625 -5.34375 C 7.625 -5.539062 7.648438 -5.722656 7.703125 -5.890625 C 7.753906 -6.054688 7.828125 -6.222656 7.921875 -6.390625 C 8.160156 -6.785156 8.492188 -6.984375 8.921875 -6.984375 C 9.085938 -6.984375 9.242188 -6.945312 9.390625 -6.875 C 9.546875 -6.8125 9.679688 -6.722656 9.796875 -6.609375 C 9.921875 -6.492188 10.019531 -6.363281 10.09375 -6.21875 C 10.164062 -6.070312 10.203125 -5.914062 10.203125 -5.75 C 10.203125 -5.445312 10.082031 -5.195312 9.84375 -5 C 9.601562 -4.800781 9.269531 -4.664062 8.84375 -4.59375 C 8.863281 -4.570312 8.910156 -4.554688 8.984375 -4.546875 C 9.296875 -4.441406 9.566406 -4.390625 9.796875 -4.390625 C 10.285156 -4.390625 10.691406 -4.515625 11.015625 -4.765625 C 11.335938 -5.023438 11.5 -5.382812 11.5 -5.84375 C 11.5 -6.332031 11.359375 -6.851562 11.078125 -7.40625 C 10.785156 -8.050781 10.425781 -8.375 10 -8.375 L 7.109375 -8.375 L 7.109375 0.265625 C 4.460938 -1.503906 2.253906 -2.660156 0.484375 -3.203125 L 0.484375 -8.9375 C 0.484375 -9.664062 0.921875 -10.03125 1.796875 -10.03125 L 10.421875 -10.03125 C 10.566406 -10.03125 10.753906 -9.953125 10.984375 -9.796875 C 11.546875 -9.421875 11.96875 -9.03125 12.25 -8.625 C 12.394531 -8.40625 12.503906 -8.148438 12.578125 -7.859375 C 12.648438 -7.566406 12.6875 -7.265625 12.6875 -6.953125 C 12.6875 -6.503906 12.601562 -6.039062 12.4375 -5.5625 C 12.269531 -5.082031 12.035156 -4.6875 11.734375 -4.375 C 11.566406 -4.207031 11.398438 -4.070312 11.234375 -3.96875 C 11.066406 -3.875 10.894531 -3.800781 10.71875 -3.75 C 10.539062 -3.707031 10.351562 -3.675781 10.15625 -3.65625 C 9.96875 -3.644531 9.757812 -3.640625 9.53125 -3.640625 C 9.40625 -3.640625 9.25 -3.664062 9.0625 -3.71875 C 8.875 -3.769531 8.691406 -3.847656 8.515625 -3.953125 C 8.054688 -4.191406 7.800781 -4.445312 7.75 -4.71875 Z M 7.765625 -4.703125 "/></g></g></g><g fill="#8cc342" fill-opacity="0.4"><g transform="translate(134.273598, 102.860629)"><g><path d="M 5.546875 1.34375 C 5.054688 1.34375 4.582031 1.257812 4.125 1.09375 C 3.664062 0.925781 3.238281 0.671875 2.84375 0.328125 C 2.457031 -0.015625 2.113281 -0.445312 1.8125 -0.96875 C 1.507812 -1.5 1.273438 -2.113281 1.109375 -2.8125 C 1.066406 -2.96875 1.023438 -3.242188 0.984375 -3.640625 C 0.953125 -4.046875 0.929688 -4.625 0.921875 -5.375 C 0.921875 -5.519531 0.914062 -5.675781 0.90625 -5.84375 C 0.90625 -6.019531 0.90625 -6.222656 0.90625 -6.453125 C 0.90625 -6.691406 0.90625 -6.960938 0.90625 -7.265625 C 0.914062 -7.566406 0.921875 -7.9375 0.921875 -8.375 L -0.828125 -8.375 L -0.828125 -10.03125 L 2.734375 -10.03125 L 2.734375 -3.15625 C 2.734375 -2.695312 2.820312 -2.238281 3 -1.78125 C 3.175781 -1.320312 3.425781 -0.875 3.75 -0.4375 C 3.894531 -0.257812 4.066406 -0.0703125 4.265625 0.125 C 4.460938 0.320312 4.664062 0.503906 4.875 0.671875 C 5.09375 0.847656 5.304688 0.992188 5.515625 1.109375 C 5.734375 1.234375 5.929688 1.3125 6.109375 1.34375 Z M 5.546875 1.34375 "/></g></g></g><g fill="#8cc342" fill-opacity="0.4"><g transform="translate(139.257484, 102.860629)"><g><path d="M 5.171875 -8.4375 L 2.203125 -8.4375 L 2.203125 -4.375 C 2.484375 -4.144531 2.738281 -3.929688 2.96875 -3.734375 C 3.207031 -3.546875 3.441406 -3.359375 3.671875 -3.171875 C 3.910156 -2.984375 4.144531 -2.789062 4.375 -2.59375 C 4.613281 -2.40625 4.878906 -2.195312 5.171875 -1.96875 Z M 0.390625 -8.609375 C 0.390625 -9.109375 0.6875 -9.492188 1.28125 -9.765625 C 1.65625 -9.941406 2.125 -10.03125 2.6875 -10.03125 L 6.90625 -10.03125 L 6.90625 0.234375 C 6.519531 0.00390625 6.148438 -0.210938 5.796875 -0.421875 C 5.441406 -0.640625 5.117188 -0.835938 4.828125 -1.015625 C 4.535156 -1.191406 4.28125 -1.34375 4.0625 -1.46875 C 3.851562 -1.59375 3.703125 -1.6875 3.609375 -1.75 C 3.066406 -2.039062 2.523438 -2.300781 1.984375 -2.53125 C 1.441406 -2.757812 0.910156 -2.953125 0.390625 -3.109375 Z M 2.109375 -0.34375 C 2.109375 -0.613281 2.203125 -0.84375 2.390625 -1.03125 C 2.578125 -1.226562 2.800781 -1.328125 3.0625 -1.328125 C 3.34375 -1.328125 3.578125 -1.226562 3.765625 -1.03125 C 3.953125 -0.84375 4.046875 -0.613281 4.046875 -0.34375 C 4.046875 -0.0703125 3.953125 0.15625 3.765625 0.34375 C 3.578125 0.53125 3.34375 0.625 3.0625 0.625 C 2.800781 0.625 2.578125 0.53125 2.390625 0.34375 C 2.203125 0.15625 2.109375 -0.0703125 2.109375 -0.34375 Z M 2.109375 -0.34375 "/></g></g></g><g fill="#8cc342" fill-opacity="0.4"><g transform="translate(146.618292, 102.860629)"><g><path d="M 1.109375 -1.40625 L 1.109375 -10.03125 L 2.984375 -10.03125 L 2.984375 0.265625 Z M 1.109375 -1.40625 "/></g></g></g><g fill="#000000" fill-opacity="1"><g transform="translate(115.025425, 102.860629)"><g><path d="M 5.375 -8.375 L 2.34375 -8.375 L 2.34375 -4.484375 L 5.375 -2.3125 Z M 7.765625 -4.703125 C 7.671875 -4.960938 7.625 -5.175781 7.625 -5.34375 C 7.625 -5.539062 7.648438 -5.722656 7.703125 -5.890625 C 7.753906 -6.054688 7.828125 -6.222656 7.921875 -6.390625 C 8.160156 -6.785156 8.492188 -6.984375 8.921875 -6.984375 C 9.085938 -6.984375 9.242188 -6.945312 9.390625 -6.875 C 9.546875 -6.8125 9.679688 -6.722656 9.796875 -6.609375 C 9.921875 -6.492188 10.019531 -6.363281 10.09375 -6.21875 C 10.164062 -6.070312 10.203125 -5.914062 10.203125 -5.75 C 10.203125 -5.445312 10.082031 -5.195312 9.84375 -5 C 9.601562 -4.800781 9.269531 -4.664062 8.84375 -4.59375 C 8.863281 -4.570312 8.910156 -4.554688 8.984375 -4.546875 C 9.296875 -4.441406 9.566406 -4.390625 9.796875 -4.390625 C 10.285156 -4.390625 10.691406 -4.515625 11.015625 -4.765625 C 11.335938 -5.023438 11.5 -5.382812 11.5 -5.84375 C 11.5 -6.332031 11.359375 -6.851562 11.078125 -7.40625 C 10.785156 -8.050781 10.425781 -8.375 10 -8.375 L 7.109375 -8.375 L 7.109375 0.265625 C 4.460938 -1.503906 2.253906 -2.660156 0.484375 -3.203125 L 0.484375 -8.9375 C 0.484375 -9.664062 0.921875 -10.03125 1.796875 -10.03125 L 10.421875 -10.03125 C 10.566406 -10.03125 10.753906 -9.953125 10.984375 -9.796875 C 11.546875 -9.421875 11.96875 -9.03125 12.25 -8.625 C 12.394531 -8.40625 12.503906 -8.148438 12.578125 -7.859375 C 12.648438 -7.566406 12.6875 -7.265625 12.6875 -6.953125 C 12.6875 -6.503906 12.601562 -6.039062 12.4375 -5.5625 C 12.269531 -5.082031 12.035156 -4.6875 11.734375 -4.375 C 11.566406 -4.207031 11.398438 -4.070312 11.234375 -3.96875 C 11.066406 -3.875 10.894531 -3.800781 10.71875 -3.75 C 10.539062 -3.707031 10.351562 -3.675781 10.15625 -3.65625 C 9.96875 -3.644531 9.757812 -3.640625 9.53125 -3.640625 C 9.40625 -3.640625 9.25 -3.664062 9.0625 -3.71875 C 8.875 -3.769531 8.691406 -3.847656 8.515625 -3.953125 C 8.054688 -4.191406 7.800781 -4.445312 7.75 -4.71875 Z M 7.765625 -4.703125 "/></g></g></g><g fill="#000000" fill-opacity="1"><g transform="translate(134.273598, 102.860629)"><g><path d="M 5.546875 1.34375 C 5.054688 1.34375 4.582031 1.257812 4.125 1.09375 C 3.664062 0.925781 3.238281 0.671875 2.84375 0.328125 C 2.457031 -0.015625 2.113281 -0.445312 1.8125 -0.96875 C 1.507812 -1.5 1.273438 -2.113281 1.109375 -2.8125 C 1.066406 -2.96875 1.023438 -3.242188 0.984375 -3.640625 C 0.953125 -4.046875 0.929688 -4.625 0.921875 -5.375 C 0.921875 -5.519531 0.914062 -5.675781 0.90625 -5.84375 C 0.90625 -6.019531 0.90625 -6.222656 0.90625 -6.453125 C 0.90625 -6.691406 0.90625 -6.960938 0.90625 -7.265625 C 0.914062 -7.566406 0.921875 -7.9375 0.921875 -8.375 L -0.828125 -8.375 L -0.828125 -10.03125 L 2.734375 -10.03125 L 2.734375 -3.15625 C 2.734375 -2.695312 2.820312 -2.238281 3 -1.78125 C 3.175781 -1.320312 3.425781 -0.875 3.75 -0.4375 C 3.894531 -0.257812 4.066406 -0.0703125 4.265625 0.125 C 4.460938 0.320312 4.664062 0.503906 4.875 0.671875 C 5.09375 0.847656 5.304688 0.992188 5.515625 1.109375 C 5.734375 1.234375 5.929688 1.3125 6.109375 1.34375 Z M 5.546875 1.34375 "/></g></g></g><g fill="#000000" fill-opacity="1"><g transform="translate(139.257484, 102.860629)"><g><path d="M 5.171875 -8.4375 L 2.203125 -8.4375 L 2.203125 -4.375 C 2.484375 -4.144531 2.738281 -3.929688 2.96875 -3.734375 C 3.207031 -3.546875 3.441406 -3.359375 3.671875 -3.171875 C 3.910156 -2.984375 4.144531 -2.789062 4.375 -2.59375 C 4.613281 -2.40625 4.878906 -2.195312 5.171875 -1.96875 Z M 0.390625 -8.609375 C 0.390625 -9.109375 0.6875 -9.492188 1.28125 -9.765625 C 1.65625 -9.941406 2.125 -10.03125 2.6875 -10.03125 L 6.90625 -10.03125 L 6.90625 0.234375 C 6.519531 0.00390625 6.148438 -0.210938 5.796875 -0.421875 C 5.441406 -0.640625 5.117188 -0.835938 4.828125 -1.015625 C 4.535156 -1.191406 4.28125 -1.34375 4.0625 -1.46875 C 3.851562 -1.59375 3.703125 -1.6875 3.609375 -1.75 C 3.066406 -2.039062 2.523438 -2.300781 1.984375 -2.53125 C 1.441406 -2.757812 0.910156 -2.953125 0.390625 -3.109375 Z M 2.109375 -0.34375 C 2.109375 -0.613281 2.203125 -0.84375 2.390625 -1.03125 C 2.578125 -1.226562 2.800781 -1.328125 3.0625 -1.328125 C 3.34375 -1.328125 3.578125 -1.226562 3.765625 -1.03125 C 3.953125 -0.84375 4.046875 -0.613281 4.046875 -0.34375 C 4.046875 -0.0703125 3.953125 0.15625 3.765625 0.34375 C 3.578125 0.53125 3.34375 0.625 3.0625 0.625 C 2.800781 0.625 2.578125 0.53125 2.390625 0.34375 C 2.203125 0.15625 2.109375 -0.0703125 2.109375 -0.34375 Z M 2.109375 -0.34375 "/></g></g></g><g fill="#000000" fill-opacity="1"><g transform="translate(146.618292, 102.860629)"><g><path d="M 1.109375 -1.40625 L 1.109375 -10.03125 L 2.984375 -10.03125 L 2.984375 0.265625 Z M 1.109375 -1.40625 "/></g></g></g><g fill="#8cc342" fill-opacity="0.4"><g transform="translate(156.629577, 102.860629)"><g/></g></g><g fill="#000000" fill-opacity="1"><g transform="translate(156.629577, 102.860629)"><g/></g></g></svg>